<svg class="brand_mark" data-name="logo" xmlns="http://www.w3.org/2000/svg" viewBox="0 0 198.24 215.5"><path class="cls-1" d="M198,44.1c0-.37,0-.75-.06-1.11,0,0-.08-1.05-.07-1,0-.9-.1-1.8-.17-2.7,0-.53-.09-1.07-.14-1.61-.06-.71-.11-1.43-.18-2.14s-.13-1.17-.19-1.76-.13-1.33-.21-2-.16-1.23-.24-1.84-.14-1.2-.23-1.8l-.09-.06c-.88-.56-1.77-1.12-2.67-1.66A179.27,179.27,0,0,0,151.23,7.62,184.75,184.75,0,0,0,101.63,0L99.37,0A186,186,0,0,0,25.78,15.17c-1.77.78-3.52,1.57-5.22,2.36l-.83.39C12.31,21.39,6,24.72,3.48,26.09h0l-1.59.83-.13.9a.19.19,0,0,0,0,.07c0,.17-.05.35-.07.53l-.06.42h0c-.13.93-.26,1.87-.37,2.82C1,34.17.72,36.7.53,39.21.46,40.12.41,41,.37,41.92c0,0-.08,1-.09,1,0,.38,0,.74-.05,1.14C.08,47.16,0,50.21,0,53.17c0,1.56,0,3.11.06,4.66s.09,2.93.17,4.4c.16,3.46.43,6.88.77,10.15.26,2.45.56,4.9.91,7.29s.72,4.64,1.15,6.92c0,.08,0,.15,0,.22C3.51,89,4,91.23,4.44,93.33c.54,2.41,1.13,4.79,1.74,7.08.48,1.81,1,3.66,1.61,5.66.78,2.57,1.63,5.18,2.53,7.75.56,1.57,1.1,3,1.66,4.48,1,2.78,2.23,5.63,3.49,8.49.5,1.13,1,2.25,1.52,3.37,1.44,3.08,3,6.13,4.56,9.07l0,.08c.41.78.83,1.55,1.26,2.33,1.71,3.07,3.51,6.09,5.34,9l.4.64.09.14.86,1.33.44.66c2,3,4.09,6,6.33,9l.75,1.07c2.57,3.38,5.38,6.81,8.32,10.17l.1.11.18.21.26.29.37.42c2,2.23,4,4.4,6.09,6.48l.08.09c.69.7,1.39,1.39,2.08,2.07,1.09,1.08,2.15,2.1,3.16,3l.14.14.95.88.58.54,1.12,1c.18.16.35.33.54.49l1.5,1.33.2.17,1.78,1.53c3.47,2.94,7.1,5.79,10.79,8.47l1.11.8h.33v.24l1.5,1.05.89.62,1.6,1.09,1,.64,1.74,1.13.85.56c.87.56,1.75,1.11,2.63,1.65,1.35.83,2.61,1.58,3.84,2.29,1.4.82,2.82,1.62,4.23,2.4l1.61.85c.84.45,1.69.91,2.54,1.34.91-.47,1.84-1,2.76-1.46l1.37-.73c1.42-.78,2.83-1.57,4.26-2.41,1-.59,2-1.19,3-1.8l-1.29-.61-1.36-.65-1.77-.87-1.27-.63-2-1-1-.53-2.72-1.49-.24-.13c-1.37-.76-2.71-1.53-4-2.33-2.72-1.62-5.22-3.2-7.63-4.81-1.07-.71-2.13-1.43-3.19-2.19-2.48-1.73-5-3.58-7.4-5.49l-.24-.19c-1.65-1.29-3.33-2.66-5-4.09-.93-.78-1.86-1.58-2.78-2.4l-.18-.16-1.86-1.7-.2-.17c-2.06-1.89-4.11-3.86-6.11-5.89l-2-2.05c-.3-.3-.59-.62-.89-.94l-.22-.23c-2.06-2.21-4.06-4.45-6-6.69l-1.87-2.25-.19-.24-.36-.46c-2.55-3.14-5-6.46-7.38-9.85a1.35,1.35,0,0,1-.18-.24c-2.24-3.24-4.44-6.67-6.55-10.17l-.24-.45a1.13,1.13,0,0,1-.12-.21c-1.92-3.26-3.78-6.69-5.54-10.17l-.28-.57c-.13-.27-.25-.53-.38-.79-.4-.84-.81-1.67-1.2-2.51-1.13-2.4-2.2-4.84-3.2-7.26l-.25-.63c-.23-.56-.46-1.11-.67-1.67-1.18-3-2.29-6-3.32-9.11,0,0-.12-.35-.12-.36-.35-1.07-.68-2.08-1-3.09l-.08-.29c-.81-2.62-1.55-5.27-2.21-7.88l-.1-.38c-.37-1.49-.73-3-1.06-4.48l-.06-.28c-.5-2.27-.95-4.51-1.34-6.69l-.07-.38c-.36-2-.69-4-1-6.12l0-.27-.15-1.11c-.18-1.32-.34-2.71-.5-4.22l0-.21s0-.09,0-.15a173.2,173.2,0,0,1,0-36.35c-.1-1,3.56-2.47,4.39-2.92q2.76-1.53,5.6-2.95,5.66-2.85,11.51-5.27a173.7,173.7,0,0,1,24-8,172.52,172.52,0,0,1,111.49,9.53q4.86,2.16,9.58,4.6,2.37,1.23,4.69,2.52c.86.49,3.46,1.4,3.52,2.44q.43,4.08.66,8.18c.1,1.66.18,3.33.22,5,0,.33,0,.69,0,1v.09c0,1.29,0,2.59,0,3.89,0,1.92,0,3.52-.08,5a173.78,173.78,0,0,1-7.58,45.42,174.54,174.54,0,0,1-19.41,41.95,170.41,170.41,0,0,1-28.51,34.06l-.23.21-.29-.12a136.94,136.94,0,0,1-55-40.71A137.48,137.48,0,0,1,53.13,96.76,135.08,135.08,0,0,1,47,69.46l0-.35c-.11-.92-.21-1.83-.3-2.75-.3-3.12-.49-6.26-.57-9.38v-.34l.31-.13c3.75-1.57,7.55-3,11.27-4.15l.65-.2c3.62-1.13,7.33-2.13,11-2.95l1.26-.3,0,.65c0,1.13-.06,2.31-.06,3.61,0,2.7.1,5.5.3,8.34s.55,5.85,1,8.77c.15,1,.31,2,.49,2.91a111.56,111.56,0,0,0,16.2,40.61,113.49,113.49,0,0,0,30,31.23q3.92,2.75,8.07,5.15c.4.23,6.55-8.05,7.14-8.83q3.6-4.83,6.81-9.92a148.82,148.82,0,0,0,11.08-21.34,142.33,142.33,0,0,0,9.73-34.63l.06-.24v-.85l.12,0c.12-.82.23-1.64.34-2.46q.62-4.78.91-9.53c.18-3.11.28-6.22.28-9.26,0-1.15,0-2.31-.05-3.46l-.17-.08c-1.54-.74-3.1-1.46-4.66-2.15l-.14,0a145.39,145.39,0,0,0-50.2-12A77.53,77.53,0,0,0,112,83.7a75.11,75.11,0,0,0,6.15,11.41c.29.45.6.89.91,1.33.1-.25.22-.51.32-.77a107.29,107.29,0,0,0,3.89-11.09q.21-.69.39-1.38a66.18,66.18,0,0,1-7-35.62l0-.51.51.06a136.26,136.26,0,0,1,34.62,9.38l.31.13V57a136.55,136.55,0,0,1-27.39,78.28l-.16.21-.37.51-.4-.28A101.44,101.44,0,0,1,82.28,38.63c.06-.4.12-.79.19-1.19s.13-.9.21-1.35l-3.05.38A147.32,147.32,0,0,0,35.48,49.62l-.19.1c0,1.14,0,2.3,0,3.45,0,3,.1,6.16.29,9.26a147.72,147.72,0,0,0,32.11,82.89,148,148,0,0,0,34.11,30.94A146.27,146.27,0,0,0,134,192.18l.88-.75.73-.63a182.61,182.61,0,0,0,30.07-33.66,185.34,185.34,0,0,0,21.17-40.47,178.12,178.12,0,0,0,9.53-37c.35-2.42.66-4.88.91-7.3.35-3.27.61-6.68.78-10.15.08-1.47.12-2.93.16-4.4s.06-3.1.06-4.66C198.24,50.21,198.17,47.16,198,44.1Z"/></svg>